<svg xmlns="http://www.w3.org/2000/svg" xmlns:xlink="http://www.w3.org/1999/xlink" width="24" height="83" viewBox="0 0 24 83"><svg width="22.012" height="17.295" viewBox="0 0 22.012 17.295" id="envelope" y="0"><path fill="#00BFA5" d="M19.911 5.331c-1.916 1.327-3.845 2.653-5.748 3.992-.799.553-2.15 1.683-3.145 1.683h-.025c-.995 0-2.346-1.13-3.145-1.683-1.903-1.339-3.831-2.665-5.735-3.992C1.241 4.741 0 3.354 0 2.235 0 1.032.651 0 1.965 0h18.082c1.068 0 1.965.884 1.965 1.965 0 1.376-1.02 2.617-2.101 3.366zm2.101 9.999c0 1.08-.885 1.965-1.965 1.965H1.965A1.971 1.971 0 0 1 0 15.33V5.577c.369.405.786.762 1.241 1.069 2.039 1.388 4.103 2.776 6.104 4.237 1.032.762 2.31 1.695 3.648 1.695h.025c1.339 0 2.616-.934 3.647-1.695 2.003-1.449 4.066-2.85 6.117-4.237a7.28 7.28 0 0 0 1.229-1.069v9.753z"></path></svg><svg width="15.151" height="21.654" viewBox="0 0 15.151 21.654" id="map_marker" y="18"><g fill="#00BEA4"><path d="M11.004 7.835a3.425 3.425 0 0 0-3.43-3.414c-1.889 0-3.431 1.531-3.431 3.414a3.432 3.432 0 0 0 6.861 0z"></path><path d="M7.574 21.654l1.388-1.817c1.455-1.925 6.189-8.469 6.189-12.049C15.151 3.132 12.106 0 7.574 0 3.045 0 0 3.132 0 7.788c0 3.854 5.56 11.223 6.192 12.049l1.382 1.817zM2.792 7.835c0-2.628 2.146-4.77 4.782-4.77 2.64 0 4.785 2.142 4.785 4.77 0 2.63-2.146 4.771-4.785 4.771-2.636-.001-4.782-2.141-4.782-4.771z"></path></g></svg><svg width="18.864" height="18.863" viewBox="0 0 18.864 18.863" id="phone" y="40"><path fill="#00BFA5" d="M18.448 16.76c-.281.656-1.031 1.086-1.634 1.42-.791.43-1.595.684-2.492.684-1.246 0-2.371-.51-3.51-.924a12.587 12.587 0 0 1-2.345-1.112c-2.278-1.407-5.024-4.153-6.431-6.431A12.617 12.617 0 0 1 .924 8.052C.509 6.913 0 5.788 0 4.542 0 3.644.254 2.84.683 2.05c.335-.603.764-1.353 1.42-1.634C2.545.214 3.483 0 3.965 0c.095 0 .188 0 .282.04.281.094.576.75.71 1.019.429.764.844 1.541 1.286 2.291.214.349.616.777.616 1.192 0 .817-2.425 2.01-2.425 2.733 0 .361.335.831.522 1.152 1.353 2.438 3.041 4.126 5.479 5.479.322.188.791.522 1.152.522.724 0 1.916-2.425 2.733-2.425.415 0 .844.402 1.192.616.75.442 1.527.857 2.291 1.286.268.134.924.429 1.018.71.041.094.041.188.041.281.002.484-.213 1.422-.414 1.864z"></path></svg><svg width="24" height="24" viewBox="0 0 24 24" id="skype" y="59"><path fill="#00BFA5" d="M18 24a5.976 5.976 0 0 1-3.656-1.25c-.75.156-1.547.25-2.344.25-6.078 0-11-4.922-11-11 0-.797.094-1.594.25-2.344A5.976 5.976 0 0 1 0 6c0-3.313 2.688-6 6-6 1.375 0 2.641.469 3.656 1.25C10.406 1.094 11.203 1 12 1c6.078 0 11 4.922 11 11 0 .797-.094 1.594-.25 2.344A5.976 5.976 0 0 1 24 18a6 6 0 0 1-6 6zm-4.531-13.547l-1.625-.375c-1.188-.281-2.078-.484-2.078-1.391 0-.828.875-1.203 2.25-1.203 2.453 0 2.5 1.797 4.016 1.797 1.016 0 1.625-.797 1.625-1.703 0-1.797-2.984-2.969-5.938-2.969-2.703 0-5.844 1.172-5.844 4.344 0 2.625 1.75 3.563 4.031 4.109l2.281.563c1.391.344 2.25.5 2.25 1.5 0 .797-.891 1.406-2.266 1.406-2.891 0-3.047-2.406-4.719-2.406-1.094 0-1.578.781-1.578 1.641 0 1.922 2.938 3.484 6.453 3.484 2.938 0 6-1.469 6-4.641.001-2.718-2.639-3.656-4.858-4.156z"></path></svg></svg>